      ) (`-.                           (` .-') /`           ) (`-.
       ( OO ).                          `.( OO ),'            ( OO ).
      (_/.  _)-.-'),-----. ,--.     ,--./  .--.  .-'),-----.(_/.  _)-.
         `.'  ( OO'  .-.  '|  |.-') |      |  | ( OO'  .-.  '  `.'  /
             /Y   |  | |  ||  | OO )|  |   |  |,/   |  | |  |      /
             _) |  ||  ||  |`-' ||  |.'.|  |_)_) |  ||  |      |
        .'    _) |  | |  (|  '---.'|         |    |  | |  | .'    _)
       /  .'.    `'  '-'  '|      | |   ,'.   |    `'  '-'  '/  .'.  
      '--'   '--'   `-----' `------' '--'   '--'      `-----''--'   '--'


      ▀▀▀▀▀▀▀▀▀▀▀▀▀▀▀▀▀▀▀▀▀▀▀▀▀▀▀▀▀▀▀▀▀▀▀▀▀▀▀▀▀▀▀▀▀▀▀▀▀▀▀▀▀▀▀▀▀▀▀▀▀▀▀▀▀▀▀▀▀▀

                    █░░░░░░░░░░░░░░░░░░░░░░░░░░░░░░█
                   ██ The Collector[2010]DvDScR-LW ██
                    █░░░░░░░░░░░░░░░░░░░░░░░░░░░░░░█

File Name    : The Collector[2010]DvDScR-LW
Type         : Movie
Format       : AVI
File Size    : 700 MB
Duration     : 01:29:54
Language     : English
Source       : DvDScR
Subtitles    : None
Genre        : Crime | Horror | Thriller
IMDB Link    : http://www.imdb.com/title/tt0844479/
IMDB Rating  : 6.3/10
IMDB Votes   : 1,168 Votes
     ▄▄▄▄▄▄▄▄▄▄▄▄▄▄▄▄▄▄▄▄▄▄▄▄▄▄▄▄▄▄▄▄▄▄▄▄▄▄▄▄▄▄▄▄▄▄▄▄▄▄▄▄▄▄▄▄▄▄▄▄▄▄▄▄▄▄▄▄▄▄
 
                        █░░░░░░░░░░░░░░░░░░░░░░░░█
                       ██       Video Info       ██
                        █░░░░░░░░░░░░░░░░░░░░░░░░█

Format                           : MPEG-4 Visual
Format profile                   : Advanced Simple@L5
Format settings, BVOP            : Yes
Format settings, QPel            : No
Format settings, GMC             : No warppoints
Format settings, Matrix          : Default (H.263)
Codec ID                         : XVID
Codec ID/Hint                    : XviD
Duration                         : 1h 29mn
Bit rate                         : 916 Kbps
Width                            : 608 pixels
Height                           : 256 pixels
Display aspect ratio             : 2.35:1
Frame rate                       : 23.976 fps
Resolution                       : 8 bits
Colorimetry                      : 4:2:0
Scan type                        : Progressive
Bits/(Pixel*Frame)               : 0.246
Stream size                      : 589 MiB (84%)
Writing library                  : XviD 1.2.1
     ▄▄▄▄▄▄▄▄▄▄▄▄▄▄▄▄▄▄▄▄▄▄▄▄▄▄▄▄▄▄▄▄▄▄▄▄▄▄▄▄▄▄▄▄▄▄▄▄▄▄▄▄▄▄▄▄▄▄▄▄▄▄▄▄▄▄▄▄▄▄

                         █░░░░░░░░░░░░░░░░░░░░░░░░█
                        ██      Sound Info        ██
                         █░░░░░░░░░░░░░░░░░░░░░░░░█

Format                           : MPEG Audio
Format version                   : Version 1
Format profile                   : Layer 3
Mode                             : Joint stereo / MS Stereo
Codec ID                         : 55
Codec ID/Hint                    : MP3
Duration                         : 1h 29mn
Bit rate mode                    : Variable
Bit rate                         : 160 Kbps
Channel(s)                       : 2 channels
Sampling rate                    : 48.0 KHz
Stream size                      : 103 MiB (15%)
Alignment                        : Aligned on interleaves
Interleave, duration             : 24 ms (0.58 video frame)
Interleave, preload duration     : 115 ms
Writing library                  : LAME3.90
    ▄▄▄▄▄▄▄▄▄▄▄▄▄▄▄▄▄▄▄▄▄▄▄▄▄▄▄▄▄▄▄▄▄▄▄▄▄▄▄▄▄▄▄▄▄▄▄▄▄▄▄▄▄▄▄▄▄▄▄▄▄▄▄▄▄▄▄▄▄▄

                          █░░░░░░░░░░░░░░░░░░░░░░░░█
                         ██          Plot          ██
                          █░░░░░░░░░░░░░░░░░░░░░░░░█

Desperate to be free of his financial debt to his 
ex-wife, Arkin (Josh Stewart) breaks into his employer's 
house to snag a jewel he knows will buy him independence. 
Too bad for him, someone else has gotten there first in 
this Marcus Dunston-helmed horror fest. Now, Arkin just 
wants to survive the night when he finds the house's 
residents tied up, the house rigged with deadly traps and 
a masked madman engaged in a deadly game of cat and mouse.

Starring: Josh Stewart, Michael Reilly Burke

Director: Marcus Dunstan
    ▄▄▄▄▄▄▄▄▄▄▄▄▄▄▄▄▄▄▄▄▄▄▄▄▄▄▄▄▄▄▄▄▄▄▄▄▄▄▄▄▄▄▄▄▄▄▄▄▄▄▄▄▄▄▄▄▄▄▄▄▄▄▄▄▄▄▄▄▄▄

                          █░░░░░░░░░░░░░░░░░░░░░░░░█
                         ██         Shoutz         ██
                          █░░░░░░░░░░░░░░░░░░░░░░░░█


           -/-ExtraTorrent-/-ShipWreckTorrentz-/-

ScreenShots
 
http://i855.photobucket.com/albums/ab120/xolwox/vlcsnap-2010-02-06-11h46m44s55.png
 
http://i855.photobucket.com/albums/ab120/xolwox/vlcsnap-2010-02-06-11h47m15s117.png
 
http://i855.photobucket.com/albums/ab120/xolwox/vlcsnap-2010-02-06-11h47m33s36.png
 
http://i855.photobucket.com/albums/ab120/xolwox/vlcsnap-2010-02-06-11h48m20s0.png
 
http://i855.photobucket.com/albums/ab120/xolwox/hhnngff.jpg